<svg className="w-7 h-7" fill="currentColor" viewBox="0 0 24 24" aria-hidden="true"><path fillRule="evenodd" d="M12.315 2c-4.04.02-6.305 2.24-6.325 6.28C6 12.54 8.27 15 12.315 15c4.04-.02 6.305-2.24 6.325-6.28C18.62 3.46 16.35 2 12.315 2zm0 11.2a3.8 3.8 0 110-7.6 3.8 3.8 0 010 7.6zM18.8 3.4a1.6 1.6 0 11-3.2 0 1.6 1.6 0 013.2 0z" clipRule="evenodd" /><path d="M12.315 0C8.275 0 8.015.02 6.785.07c-1.23.05-2.09.26-2.86.58-.78.32-1.45.78-2.12 1.45s-1.13 1.34-1.45 2.12c-.32.77-.53 1.63-.58 2.86C.02 8.01 0 8.27 0 12.315s.02 4.305.07 5.535c.05 1.23.26 2.09.58 2.86.32.78.78 1.45 1.45 2.12s1.34 1.13 2.12 1.45c.77.32 1.63.53 2.86.58 1.23.05 1.49.07 5.53.07s4.305-.02 5.535-.07c1.23-.05 2.09-.26 2.86-.58.78-.32 1.45-.78 2.12-1.45s1.13-1.34 1.45-2.12c.32-.77.53-1.63.58-2.86.05-1.23.07-1.49.07-5.53s-.02-4.305-.07-5.535c-.05-1.23-.26-2.09-.58-2.86-.32-.78-.78-1.45-1.45-2.12s-1.34-1.13-2.12-1.45c-.77-.32-1.63-.53-2.86-.58C16.62.02 16.36 0 12.315 0z" /></svg>